<svg xmlns="http://www.w3.org/2000/svg" viewBox="0 0 900 400">
  <path fill="currentColor" d="M394.3,154.15v19.4c6.2-3.8,12.7-6.8,19.7-9.1,8.8-2.7,17.8-4.1,27.1-4.1h3.3v42.4h-3.3c-12.9,0-24,4.6-33.1,13.7-9.1,9.1-13.7,20.2-13.7,33.1v80.4h-42.4V154.15h42.4Z"/>
  <path fill="currentColor" d="M464.5,264.65c-.3-2.9-.5-5.7-.5-8.4v-101.7h41.3v102.2c0,1.1,.1,2.3,.3,3.4,.1,1,.3,2.2,.5,3.4,1,4.5,2.9,8.5,5.7,12,2.6,3.5,5.9,6.5,9.9,8.7,3.5,2.1,7.4,3.4,11.5,3.9,4,.6,8,.4,12-.5,2.7-.7,5.3-1.7,7.7-2.9,2.4-1.3,4.6-2.8,6.5-4.6,2.4-2.1,4.4-4.5,6-7.2,1.6-2.6,2.8-5.4,3.6-8.2v-110.2h42.8v175.1h-42.9v-6.7c-1.5,.8-3,1.5-4.6,2.1-3.2,1.3-6.5,2.2-9.8,2.9-7.8,1.8-15.6,2.4-23.5,1.7-7.9-.7-15.5-2.6-22.8-5.8-10.7-4.7-19.8-11.5-27.3-20.4-7.4-8.9-12.5-19-15.1-30.4-.5-2.8-1-5.6-1.3-8.4Z"/>
  <path fill="currentColor" d="M228,149.85v33.9c-5.5-3.3-11.3-6-17.5-8.1-7.8-2.4-15.8-3.6-24.2-3.6-22,0-40.6,7.7-56.1,23.2-15.5,15.5-23.3,34.3-23.3,56.2s7.8,40.6,23.3,56.1c15.4,15.5,34.1,23.3,56.1,23.3,8.3,0,16.4-1.3,24.2-3.8,6.2-1.9,12-4.6,17.5-8.1v10.6h37.7V119.95l-37.7,29.9Zm-.5,91.2l-3.7,30.2-17.9,13.5-19.6,14.7-19.8-14.8-18-13.4-3.6-30.2-1.8-16.5,21.9-9.5,21.2-9.2,25.7,11.2,17.6,7.5-2,16.5Z"/>
  <path fill="currentColor" d="M792,329.95h-45v-107.2c0-11.9-4.3-31.9-33.4-31.9-12.3,0-32.8,4.1-32.8,31.3v107.8h-45v-107.8c0-23.3,8.2-42.9,23.6-56.9,13.9-12.5,33.1-19.4,54.2-19.4,46.1,0,78.4,31.6,78.4,76.9v107.2Z"/>
  <rect fill="currentColor" x="293.59" y="293.67" width="29.3" height="29.3" transform="translate(-127.73 308.26) rotate(-45)"/>
  <polygon fill="currentColor" points="229.7 89.95 226.4 137.75 264.7 108.85 270.4 62.55 229.7 89.95"/>
</svg>
