<?xml version="1.0" encoding="UTF-8" standalone="no"?>
<!DOCTYPE svg PUBLIC "-//W3C//DTD SVG 1.1//EN" "http://www.w3.org/Graphics/SVG/1.1/DTD/svg11.dtd">
<svg width="100%" height="100%" viewBox="0 0 1920 1080" version="1.1" xmlns="http://www.w3.org/2000/svg" xmlns:xlink="http://www.w3.org/1999/xlink" xml:space="preserve" xmlns:serif="http://www.serif.com/" style="fill-rule:evenodd;clip-rule:evenodd;stroke-linecap:round;">
    <g transform="matrix(0.714564,0,0,0.714564,103.202978,145.80387)">
        <rect x="0" y="0" width="2398.096" height="1125.125" style="fill:white;"/>
    </g>
    <g transform="matrix(0.714564,0,0,0.714564,220.850444,225.718774)">
        <path d="M32,0C194.27,-1.25 355.11,-0.97 549.8,0M32,0C217.17,0.01 401.67,-0.11 549.8,0M549.8,0C569.3,0.66 580.28,11.64 581.8,32M549.8,0C570.06,-0.34 584.06,11.39 581.8,32M581.8,32C582.77,118.45 583.16,207.85 581.8,365.33M581.8,32C582.91,157 583.88,282.45 581.8,365.33M581.8,365.33C580.2,385.58 571.3,397.04 549.8,397.33M581.8,365.33C583.67,384.89 572.08,398.66 549.8,397.33M549.8,397.33C360.56,395.89 169.77,395.49 32,397.33M549.8,397.33C371.9,397.22 193.35,397.26 32,397.33M32,397.33C10.32,395.37 -1.29,386.14 0,365.33M32,397.33C12.44,395.57 0.8,387.52 0,365.33M0,365.33C-1.91,235.91 -2.57,106.55 0,32M0,365.33C2.22,259.58 2.25,154.52 0,32M0,32C1.44,10.17 9.17,1.1 32,0M0,32C-0.47,11.16 8.66,0.52 32,0" style="fill:none;fill-rule:nonzero;stroke:rgb(30,30,30);stroke-width:2px;"/>
    </g>
    <g transform="matrix(0.714564,0,0,0.714564,362.77257,396.490858)">
        <g transform="matrix(1,0,0,1,-144.427832,17.62)">
            <text x="0px" y="0px" style="font-family:'ArialMT', 'Arial', sans-serif;font-size:20px;fill:rgb(30,30,30);">&lt;http://pakalon/user_id/&lt;random_num&gt;/&gt;</text>
        </g>
    </g>
    <g transform="matrix(0.714564,0,0,0.714564,364.934583,304.169081)">
        <g transform="matrix(1,0,0,1,-144.427832,31.716)">
            <text x="0px" y="0px" style="font-family:'ArialMT', 'Arial', sans-serif;font-size:36px;fill:rgb(30,30,30);">Pakalon-CLI application</text>
        </g>
    </g>
    <g transform="matrix(0.714564,0,0,0.714564,368.765719,445.072074)">
        <g transform="matrix(1,0,0,1,-144.427832,17.62)">
            <text x="0px" y="0px" style="font-family:'ArialMT', 'Arial', sans-serif;font-size:20px;fill:rgb(30,30,30);">Code : xxx-xxx</text>
        </g>
    </g>
    <g transform="matrix(0.714564,0,0,0.714564,748.162838,224.600146)">
        <path d="M32,0C139.16,-1.52 247.15,-1.23 549.8,0M32,0C201.28,1.14 371.02,1.38 549.8,0M549.8,0C571.16,-1.78 583.08,10.71 581.8,32M549.8,0C570.04,2.18 579.87,12.24 581.8,32M581.8,32C579.83,142.57 579.4,251.4 581.8,365.33M581.8,32C581.8,127.7 582.22,223.98 581.8,365.33M581.8,365.33C581.37,388.44 569.4,399.06 549.8,397.33M581.8,365.33C580.12,386.48 572.12,397.83 549.8,397.33M549.8,397.33C350.09,397.76 150.03,396.81 32,397.33M549.8,397.33C389.57,398.46 229.3,398.27 32,397.33M32,397.33C10.33,395.56 -1.83,387.32 0,365.33M32,397.33C8.91,398.44 -1.08,386.32 0,365.33M0,365.33C-0.57,232.35 0.03,98.99 0,32M0,365.33C-1.1,237.18 -2.11,109.88 0,32M0,32C1.31,12.45 9.06,-1.08 32,0M0,32C0.19,10.34 12.54,-1.77 32,0" style="fill:none;fill-rule:nonzero;stroke:rgb(30,30,30);stroke-width:2px;"/>
    </g>
    <g transform="matrix(0.714564,0,0,0.714564,962.969977,245.67356)">
        <g transform="matrix(1,0,0,1,-144.427832,31.716)">
            <text x="0px" y="0px" style="font-family:'ArialMT', 'Arial', sans-serif;font-size:36px;fill:rgb(30,30,30);">Pakalon-website</text>
        </g>
    </g>
    <g transform="matrix(0.714564,0,0,0.714564,994.050877,340.509963)">
        <g transform="matrix(1,0,0,1,-144.427832,17.62)">
            <text x="0px" y="0px" style="font-family:'ArialMT', 'Arial', sans-serif;font-size:20px;fill:rgb(30,30,30);">Login/create account</text>
        </g>
    </g>
    <g transform="matrix(0.714564,0,0,0.714564,1030.191458,411.824282)">
        <g transform="matrix(1,0,0,1,-144.427832,17.62)">
            <text x="0px" y="0px" style="font-family:'ArialMT', 'Arial', sans-serif;font-size:20px;fill:rgb(30,30,30);">Github login</text>
        </g>
    </g>
    <g transform="matrix(0.714564,0,0,0.714564,822.77795,327.343296)">
        <path d="M32,0C168.16,-0.4 305.04,0.41 375.29,0M32,0C117.31,0.25 203.91,-0.1 375.29,0M375.29,0C398.35,0.89 409.11,9.31 407.29,32M375.29,0C398.54,0.78 406.08,10.82 407.29,32M407.29,32C406.82,60.01 407.32,82.66 407.29,160.39M407.29,32C407.74,73.11 407.21,116.16 407.29,160.39M407.29,160.39C408.96,180.65 397.9,192.02 375.29,192.39M407.29,160.39C406.67,183.7 394.51,192.22 375.29,192.39M375.29,192.39C297.81,191.59 220.05,190.68 32,192.39M375.29,192.39C306.85,191.32 237.27,191.22 32,192.39M32,192.39C10.55,191.82 1.6,181.86 0,160.39M32,192.39C9.29,192.97 -0.96,180.82 0,160.39M0,160.39C0.26,134.78 -2.03,106.98 0,32M0,160.39C0.35,112.39 0.94,63.77 0,32M0,32C-1.3,9.64 9.13,-0.88 32,0M0,32C1.39,12.85 12.79,0.55 32,0" style="fill:none;fill-rule:nonzero;stroke:rgb(30,30,30);stroke-width:2px;"/>
    </g>
    <g transform="matrix(0.714564,0,0,0.714564,866.65304,403.247644)">
        <path d="M13.82,0C71.71,3.08 129.26,1.97 272.72,0M13.82,0C66.61,0.33 118.04,0.21 272.72,0M272.72,0C281.82,-0.57 288.13,4.74 286.54,13.82M272.72,0C280.55,0.58 285.58,3.7 286.54,13.82M286.54,13.82C287.17,19.82 284.88,23.64 286.54,41.45M286.54,13.82C286.8,24.15 287.39,33.88 286.54,41.45M286.54,41.45C285.24,49.63 280.39,54.39 272.72,55.26M286.54,41.45C287.93,52.84 284.05,55.81 272.72,55.26M272.72,55.26C203.19,54.19 132.49,53.99 13.82,55.26M272.72,55.26C172.08,57.06 72.58,56 13.82,55.26M13.82,55.26C3.46,56.19 -0.53,51.53 0,41.45M13.82,55.26C6.51,53.61 1.18,50.88 0,41.45M0,41.45C1.27,28.68 1.92,18.77 0,13.82M0,41.45C-0.32,30.62 0.44,19.68 0,13.82M0,13.82C0.05,3.59 5.31,-1.55 13.82,0M0,13.82C1.23,2.82 3.46,0.81 13.82,0" style="fill:none;fill-rule:nonzero;stroke:rgb(30,30,30);stroke-width:2px;"/>
    </g>
    <g transform="matrix(0.714564,0,0,0.714564,753.900348,599.976061)">
        <path d="M32,0C156.35,-1.33 279.44,-1.68 549.8,0M32,0C200.04,1.99 368.45,2.11 549.8,0M549.8,0C572.32,-1.63 580.6,11.13 581.8,32M549.8,0C572.97,-1.98 582.33,10.93 581.8,32M581.8,32C578.82,153.16 579.76,276.63 581.8,365.33M581.8,32C583.27,112.69 584.19,192.34 581.8,365.33M581.8,365.33C580.86,388.28 570.7,398.83 549.8,397.33M581.8,365.33C582.89,387.64 572.4,396.54 549.8,397.33M549.8,397.33C382.1,397.15 216.22,398.17 32,397.33M549.8,397.33C397.21,397.33 243.73,397.43 32,397.33M32,397.33C10.82,398.44 -0.53,387.02 0,365.33M32,397.33C11.84,399.49 0.25,384.45 0,365.33M0,365.33C2.92,289.74 0.91,216.08 0,32M0,365.33C1.29,242.71 0.27,121.22 0,32M0,32C-0.01,9.49 12.59,-0.66 32,0M0,32C0.73,11.28 10.12,1.19 32,0" style="fill:none;fill-rule:nonzero;stroke:rgb(30,30,30);stroke-width:2px;"/>
    </g>
    <g transform="matrix(0.714564,0,0,0.714564,831.628101,688.929654)">
        <path d="M32,0C136.23,1.77 243.79,0.21 342.75,0M32,0C105.31,0.53 178.95,0.66 342.75,0M342.75,0C365.53,0.48 375.73,9.58 374.75,32M342.75,0C364.9,0.7 376.1,9.31 374.75,32M374.75,32C373.28,77.79 375.13,120.75 374.75,158.19M374.75,32C375.91,57.47 375.59,84 374.75,158.19M374.75,158.19C376.06,178.74 363.03,191.94 342.75,190.19M374.75,158.19C374.4,179.02 364.19,190.37 342.75,190.19M342.75,190.19C276.32,189.68 211.5,190.33 32,190.19M342.75,190.19C222.33,188.67 102.81,188.64 32,190.19M32,190.19C12.42,188.21 -0.18,177.83 0,158.19M32,190.19C11.32,192.46 -1.07,179.82 0,158.19M0,158.19C0.79,122.32 2.8,90.63 0,32M0,158.19C1.68,126.24 1.37,93.22 0,32M0,32C1.77,9.54 10.15,1.93 32,0M0,32C-0.43,11.86 8.7,0.78 32,0" style="fill:none;fill-rule:nonzero;stroke:rgb(30,30,30);stroke-width:2px;"/>
    </g>
    <g transform="matrix(0.714564,0,0,0.714564,857.36107,757.282853)">
        <path d="M10.13,0C15.91,0.56 23.31,0.42 30.39,0M10.13,0C15.53,-0.19 19.49,-0.01 30.39,0M30.39,0C38.54,-0.31 40.38,5.2 40.51,10.13M30.39,0C36.17,1.44 38.55,1.98 40.51,10.13M40.51,10.13C41.22,24.58 40.03,39.83 40.51,50.64M40.51,10.13C39.98,18.05 39.14,26.87 40.51,50.64M40.51,50.64C40.09,59.26 36.8,59.64 30.39,60.77M40.51,50.64C40.34,58.35 38.73,60.87 30.39,60.77M30.39,60.77C24.23,62.4 21.65,60.32 10.13,60.77M30.39,60.77C25.72,60.21 20.43,60.66 10.13,60.77M10.13,60.77C4.7,61.33 0.44,57.07 0,50.64M10.13,60.77C2.23,59.14 2.3,57 0,50.64M0,50.64C1.79,40.17 -0.54,26.86 0,10.13M0,50.64C-0.49,36.46 0.24,21.15 0,10.13M0,10.13C1.88,1.8 4.16,-0.73 10.13,0M0,10.13C-1.07,5.04 2.16,-0.22 10.13,0" style="fill:none;fill-rule:nonzero;stroke:rgb(30,30,30);stroke-width:2px;"/>
    </g>
    <g transform="matrix(0.714564,0,0,0.714564,895.156368,757.282853)">
        <path d="M10.13,0C15.75,1.03 24.94,-1.39 30.39,0M10.13,0C17.33,0.54 24.98,0.58 30.39,0M30.39,0C36.19,0.89 40.46,4.7 40.51,10.13M30.39,0C37.79,0.5 40.14,2.23 40.51,10.13M40.51,10.13C41.03,20.21 40.13,30.66 40.51,50.64M40.51,10.13C41.11,26.58 40.55,41.84 40.51,50.64M40.51,50.64C41.92,58.25 37.69,62.65 30.39,60.77M40.51,50.64C38.7,58.29 36.3,59.7 30.39,60.77M30.39,60.77C23.68,61.03 16.16,59.09 10.13,60.77M30.39,60.77C23.86,61.66 17.73,59.81 10.13,60.77M10.13,60.77C5.2,62.05 0.92,58.34 0,50.64M10.13,60.77C2.09,62.21 0,59.65 0,50.64M0,50.64C-0.97,41.78 -1.1,34.57 0,10.13M0,50.64C-0.13,36.44 0.1,21.08 0,10.13M0,10.13C-0.24,4.32 2.25,-0.85 10.13,0M0,10.13C1.93,4.36 2.21,1.77 10.13,0" style="fill:none;fill-rule:nonzero;stroke:rgb(30,30,30);stroke-width:2px;"/>
    </g>
    <g transform="matrix(0.714564,0,0,0.714564,933.755821,757.282853)">
        <path d="M10.13,0C14.62,-1.16 20.6,-1.31 30.39,0M10.13,0C16.75,0.71 21.17,0.75 30.39,0M30.39,0C35.74,-1.65 42.06,3.03 40.51,10.13M30.39,0C37.28,2.13 41.97,3.8 40.51,10.13M40.51,10.13C38.8,23.17 38.75,31.57 40.51,50.64M40.51,10.13C40.57,23.29 40.94,37.42 40.51,50.64M40.51,50.64C39.87,57.12 37.87,59.99 30.39,60.77M40.51,50.64C41.65,56.03 35.17,61.28 30.39,60.77M30.39,60.77C26.63,62.6 19.91,60.1 10.13,60.77M30.39,60.77C24.56,60.89 20.75,61.39 10.13,60.77M10.13,60.77C3.29,60.21 -0.22,57.61 0,50.64M10.13,60.77C4.36,61.3 -2.27,56.4 0,50.64M0,50.64C0.85,39.23 -1.53,32.31 0,10.13M0,50.64C-0.86,36.64 0.45,22.61 0,10.13M0,10.13C1.73,4.78 3.89,1.95 10.13,0M0,10.13C-1.84,4.53 3.96,1.2 10.13,0" style="fill:none;fill-rule:nonzero;stroke:rgb(30,30,30);stroke-width:2px;"/>
    </g>
    <g transform="matrix(0.714564,0,0,0.714564,1003.71733,754.870387)">
        <path d="M10.13,0C17.89,-0.75 25.17,-1.15 30.39,0M10.13,0C14.01,-0.35 19.45,1.07 30.39,0M30.39,0C36.73,-0.58 39.66,5.12 40.51,10.13M30.39,0C37.27,-1.41 40.77,5.18 40.51,10.13M40.51,10.13C40.28,24.98 41.35,39.86 40.51,50.64M40.51,10.13C40.2,18.86 40.73,25.65 40.51,50.64M40.51,50.64C38.92,58.77 37.87,60.14 30.39,60.77M40.51,50.64C38.71,55.11 36.28,61.5 30.39,60.77M30.39,60.77C26.37,62.86 19.73,61.91 10.13,60.77M30.39,60.77C24.08,61.59 17.54,60.1 10.13,60.77M10.13,60.77C2.82,59.94 -1.46,59.18 0,50.64M10.13,60.77C5.27,62.04 1.19,55.29 0,50.64M0,50.64C1.34,38.53 -1.6,27.79 0,10.13M0,50.64C-0.05,34.44 -0.45,19.99 0,10.13M0,10.13C0.26,4.61 4.4,-1.2 10.13,0M0,10.13C0.71,3.02 1.45,0.2 10.13,0" style="fill:none;fill-rule:nonzero;stroke:rgb(30,30,30);stroke-width:2px;"/>
    </g>
    <g transform="matrix(0.714564,0,0,0.714564,1039.904317,754.870387)">
        <path d="M10.13,0C17.32,1.9 23.89,1.87 30.39,0M10.13,0C17.1,-0.12 22.95,-0.18 30.39,0M30.39,0C36.09,-0.88 41.92,3.63 40.51,10.13M30.39,0C38.55,1.17 39.13,4.09 40.51,10.13M40.51,10.13C40.11,22.39 40.49,32.72 40.51,50.64M40.51,10.13C39.99,25.5 41.08,41.68 40.51,50.64M40.51,50.64C41.04,57.47 37.06,59.48 30.39,60.77M40.51,50.64C38.71,56.75 37.3,60.18 30.39,60.77M30.39,60.77C24.17,60.83 20.62,60.97 10.13,60.77M30.39,60.77C25.72,61.09 21.05,60.47 10.13,60.77M10.13,60.77C4.09,61.59 -0.05,57.86 0,50.64M10.13,60.77C4.07,60.01 -0.01,56.46 0,50.64M0,50.64C-1.62,33.18 -1.38,19.94 0,10.13M0,50.64C-0.06,41.41 1.01,31.67 0,10.13M0,10.13C-1.41,2.8 4.79,-1.53 10.13,0M0,10.13C1.19,3.45 5.12,1.11 10.13,0" style="fill:none;fill-rule:nonzero;stroke:rgb(30,30,30);stroke-width:2px;"/>
    </g>
    <g transform="matrix(0.714564,0,0,0.714564,970.746964,755.674542)">
        <path d="M10.13,0C15.93,0.21 21.78,-1.69 30.39,0M10.13,0C16.07,-0.78 21.16,0.45 30.39,0M30.39,0C37.96,-0.05 40.98,3.98 40.51,10.13M30.39,0C36.38,-0.01 39.58,5.31 40.51,10.13M40.51,10.13C38.78,22.71 41.1,36.18 40.51,50.64M40.51,10.13C40.23,21.54 39.52,30.55 40.51,50.64M40.51,50.64C39.93,58.81 35.61,61.8 30.39,60.77M40.51,50.64C40.59,59.14 38.25,62.65 30.39,60.77M30.39,60.77C22.25,60.99 16.91,59.18 10.13,60.77M30.39,60.77C22.87,61.2 17.32,59.88 10.13,60.77M10.13,60.77C1.62,59.46 0.49,58.36 0,50.64M10.13,60.77C1.39,62.26 2.13,56.48 0,50.64M0,50.64C-1,39.29 1.2,28.06 0,10.13M0,50.64C0.5,37.69 -0.01,23.49 0,10.13M0,10.13C-0.56,4.49 3.95,-1.91 10.13,0M0,10.13C-0.71,5.55 1.27,-1.98 10.13,0" style="fill:none;fill-rule:nonzero;stroke:rgb(30,30,30);stroke-width:2px;"/>
    </g>
    <g transform="matrix(0.714564,0,0,0.714564,988.709483,715.466778)">
        <g transform="matrix(1,0,0,1,-144.427832,17.62)">
            <text x="0px" y="0px" style="font-family:'ArialMT', 'Arial', sans-serif;font-size:20px;fill:rgb(30,30,30);">Enter the 6 digit code</text>
        </g>
    </g>
    <g transform="matrix(0.714564,0,0,0.714564,992.730259,631.83463)">
        <g transform="matrix(1,0,0,1,-144.427832,17.62)">
            <g transform="matrix(20,0,0,20,96.708984,0)">
            </g>
            <g transform="matrix(20,0,0,20,102.265625,0)">
            </g>
            <text x="0px" y="0px" style="font-family:'ArialMT', 'Arial', sans-serif;font-size:20px;fill:rgb(30,30,30);">2-Step veriﬁcation</text>
        </g>
    </g>
    <g transform="matrix(0.714564,0,0,0.714564,206.405957,145.80387)">
        <g transform="matrix(1,0,0,1,1049.542259,513.600212)">
            <path d="M0.04,0.49C1.14,19.8 5.64,95.79 6.7,115.13M-1.4,-0.29C-0.52,19.2 3.77,97.09 5.48,116.22" style="fill:none;fill-rule:nonzero;stroke:rgb(30,30,30);stroke-width:2px;"/>
        </g>
        <g transform="matrix(1,0,0,1,1049.542259,513.600212)">
            <path d="M-4.68,93.37C-0.86,99.53 0.02,106.07 5.48,116.22M-4.68,93.37C-1.93,100.23 2.55,108 5.48,116.22" style="fill:none;fill-rule:nonzero;stroke:rgb(30,30,30);stroke-width:2px;"/>
        </g>
        <g transform="matrix(1,0,0,1,1049.542259,513.600212)">
            <path d="M12.38,92.19C10.93,98.72 6.54,105.63 5.48,116.22M12.38,92.19C9.26,99.59 7.88,107.77 5.48,116.22" style="fill:none;fill-rule:nonzero;stroke:rgb(30,30,30);stroke-width:2px;"/>
        </g>
    </g>
    <g transform="matrix(0.714564,0,0,0.714564,206.405957,145.80387)">
        <g transform="matrix(1,0,0,1,608.016755,310.48104)">
            <path d="M1.06,-0.14C25.09,-0.24 119.55,-1.14 143.25,-1.27M0.16,-1.26C24.64,-1.08 121.23,0.65 145.5,0.35" style="fill:none;fill-rule:nonzero;stroke:rgb(30,30,30);stroke-width:2px;"/>
        </g>
        <g transform="matrix(1,0,0,1,608.016755,310.48104)">
            <path d="M121.96,8.79C127,5.21 132.75,3.42 145.5,0.35M121.96,8.79C130.25,6.96 137.36,3.64 145.5,0.35" style="fill:none;fill-rule:nonzero;stroke:rgb(30,30,30);stroke-width:2px;"/>
        </g>
        <g transform="matrix(1,0,0,1,608.016755,310.48104)">
            <path d="M122.05,-8.31C126.97,-8.09 132.7,-6.08 145.5,0.35M122.05,-8.31C130.28,-4.3 137.36,-1.76 145.5,0.35" style="fill:none;fill-rule:nonzero;stroke:rgb(30,30,30);stroke-width:2px;"/>
        </g>
    </g>
    <g transform="matrix(0.714564,0,0,0.714564,1393.916162,374.991455)">
        <path d="M32,0C138.46,1.91 243.25,1.87 549.8,0M32,0C222.56,-0.8 413.03,-1.36 549.8,0M549.8,0C571.4,-0.71 581.16,9.9 581.8,32M549.8,0C571.47,1.95 583.62,10.68 581.8,32M581.8,32C580.98,105.91 580.84,179.92 581.8,365.33M581.8,32C579.5,164.23 580.2,295.94 581.8,365.33M581.8,365.33C580.47,386.38 570.19,396.93 549.8,397.33M581.8,365.33C580.72,385.72 570.46,396.52 549.8,397.33M549.8,397.33C443.75,397.48 337.9,397.4 32,397.33M549.8,397.33C392.05,397.86 234.78,398.34 32,397.33M32,397.33C9.2,396.35 1.12,385.26 0,365.33M32,397.33C12.01,395.26 -0.96,387.47 0,365.33M0,365.33C-1.89,243.95 -1.68,121.88 0,32M0,365.33C1.38,240.5 1.74,116.09 0,32M0,32C1.61,12.01 9.31,0.74 32,0M0,32C-0.47,9.73 8.53,0.07 32,0" style="fill:none;fill-rule:nonzero;stroke:rgb(30,30,30);stroke-width:2px;"/>
    </g>
    <g transform="matrix(0.714564,0,0,0.714564,1602.311092,411.99703)">
        <g transform="matrix(1,0,0,1,-144.427832,31.716)">
            <text x="0px" y="0px" style="font-family:'ArialMT', 'Arial', sans-serif;font-size:36px;fill:rgb(30,30,30);">Pakalon backend</text>
        </g>
    </g>
    <g transform="matrix(0.714564,0,0,0.714564,1438.990217,464.825817)">
        <path d="M36.38,0.33C45.37,-0.47 59.54,-0.69 69.68,-0.21C79.83,0.27 89.85,1.62 97.24,3.23C104.63,4.85 111.66,7.55 114.02,9.47C116.39,11.39 114.84,12.9 111.45,14.75C108.06,16.59 101.89,19.09 93.69,20.56C85.49,22.04 72.73,23.44 62.25,23.59C51.77,23.74 40.03,22.35 30.8,21.46C21.57,20.56 12.1,19.88 6.85,18.23C1.61,16.57 -1.35,13.68 -0.68,11.54C-0.01,9.4 3.75,7.25 10.87,5.38C18,3.5 35.74,1.16 42.07,0.28C48.4,-0.6 48.41,-0.25 48.84,0.1M75.06,-0.7C84.25,-0.43 94.84,1.97 101.4,3.94C107.97,5.92 113.18,9.2 114.43,11.15C115.68,13.09 113.49,13.9 108.89,15.62C104.29,17.34 95.66,20.24 86.84,21.46C78.03,22.68 66.08,23 55.99,22.95C45.89,22.9 34.67,22.29 26.27,21.17C17.88,20.05 9.72,18.39 5.61,16.26C1.51,14.12 -0.01,10.37 1.63,8.36C3.28,6.36 8.54,5.67 15.5,4.22C22.46,2.77 33.17,0.19 43.42,-0.34C53.67,-0.86 71.77,0.74 77,1.1C82.24,1.45 75.3,1.82 74.82,1.81" style="fill:none;fill-rule:nonzero;stroke:rgb(30,30,30);stroke-width:2px;"/>
    </g>
    <g transform="matrix(0.714564,0,0,0.714564,1438.841622,482.411567)">
        <path d="M57.2,0.69C66.93,0.47 79.84,0.38 88.55,1.43C97.25,2.48 105.47,5.07 109.44,6.97C113.41,8.87 114.12,10.86 112.36,12.86C110.6,14.85 105.48,17.2 98.9,18.94C92.32,20.68 82.74,22.78 72.89,23.29C63.04,23.8 49.82,22.74 39.79,22.01C29.75,21.27 19.34,20.45 12.67,18.88C6.01,17.31 1.14,14.46 -0.21,12.57C-1.57,10.68 0.01,9.19 4.57,7.53C9.13,5.88 17.88,3.93 27.16,2.64C36.44,1.35 54.21,0.08 60.26,-0.2C66.31,-0.47 63.56,0.63 63.45,0.97M45.86,0.61C55.02,0.17 67.15,-0.13 76.5,0.37C85.85,0.88 95.68,2.02 101.95,3.64C108.23,5.26 113.49,7.61 114.16,10.1C114.84,12.58 111.16,16.46 106,18.54C100.84,20.61 92.45,21.59 83.2,22.57C73.96,23.55 60.51,24.59 50.52,24.41C40.54,24.23 31.37,22.77 23.31,21.47C15.26,20.18 5.76,18.53 2.21,16.62C-1.34,14.72 -0.23,12.34 2.02,10.05C4.27,7.76 8.36,4.45 15.7,2.88C23.04,1.3 41.24,0.86 46.04,0.6C50.84,0.35 44.16,1.3 44.48,1.34" style="fill:none;fill-rule:nonzero;stroke:rgb(30,30,30);stroke-width:2px;"/>
    </g>
    <g transform="matrix(0.714564,0,0,0.714564,1440.046818,501.466616)">
        <path d="M73.25,0.17C82.45,0.57 92.36,1.81 98.63,3.55C104.89,5.28 109.83,8.42 110.84,10.58C111.86,12.74 109.25,14.81 104.73,16.52C100.2,18.24 92.08,19.84 83.69,20.87C75.31,21.91 64.37,22.53 54.43,22.73C44.5,22.93 32.42,23.08 24.07,22.06C15.72,21.04 8.38,18.55 4.34,16.61C0.3,14.67 -1.98,12.51 -0.14,10.44C1.69,8.36 8.57,5.72 15.35,4.16C22.14,2.6 30.17,1.5 40.58,1.07C50.98,0.65 71.13,1.59 77.8,1.63C84.47,1.68 80.96,1.25 80.59,1.35M33.22,-0.43C41.42,-1.48 54.61,0.19 64.32,0.86C74.03,1.53 84.26,2.32 91.47,3.57C98.69,4.83 104.71,6.22 107.6,8.41C110.48,10.6 111.53,14.63 108.76,16.74C105.99,18.84 98.56,20.08 90.98,21.02C83.39,21.97 73.09,22.39 63.23,22.4C53.38,22.4 41.1,21.72 31.85,21.04C22.59,20.37 12.79,19.75 7.68,18.36C2.57,16.96 0.94,15.12 1.18,12.69C1.43,10.27 3.84,5.91 9.16,3.81C14.48,1.71 29.19,0.77 33.11,0.09C37.03,-0.58 32.48,-0.45 32.7,-0.22" style="fill:none;fill-rule:nonzero;stroke:rgb(30,30,30);stroke-width:2px;"/>
    </g>
    <g transform="matrix(0.714564,0,0,0.714564,1439.898223,517.345824)">
        <path d="M29.41,0.59C37.55,-0.41 50.47,0.82 60.33,0.96C70.2,1.11 80.8,0.27 88.62,1.46C96.43,2.65 103.9,5.93 107.24,8.11C110.59,10.3 110.97,12.61 108.68,14.56C106.38,16.51 100.38,18.2 93.48,19.79C86.58,21.37 76.86,23.57 67.28,24.08C57.69,24.58 45.23,23.81 35.98,22.8C26.72,21.8 17.64,19.88 11.74,18.03C5.84,16.18 1.44,13.63 0.6,11.7C-0.24,9.76 0.11,8.16 6.7,6.44C13.28,4.73 32.91,2.56 40.12,1.39C47.33,0.22 49.9,-0.52 49.97,-0.58M28.6,0.84C36.86,0.2 49.79,1.23 59.99,1.26C70.19,1.3 81.7,-0.12 89.8,1.04C97.9,2.21 105.36,5.9 108.58,8.26C111.81,10.62 111.69,13.08 109.15,15.23C106.62,17.37 100.2,20.03 93.38,21.12C86.56,22.21 77.61,21.4 68.24,21.78C58.88,22.15 46.69,23.69 37.19,23.39C27.69,23.09 17.66,21.81 11.25,19.98C4.84,18.15 -0.67,14.71 -1.27,12.41C-1.88,10.1 2.68,7.76 7.62,6.16C12.57,4.57 24.58,3.5 28.38,2.83C32.18,2.16 29.76,1.98 30.4,2.15" style="fill:none;fill-rule:nonzero;stroke:rgb(30,30,30);stroke-width:2px;"/>
    </g>
    <g transform="matrix(0.714564,0,0,0.714564,206.405957,145.80387)">
        <g transform="matrix(1,0,0,1,1725.153064,458.388999)">
            <path d="M0.49,-0.38C0.77,12.01 0.57,62.22 0.61,75.12M-0.71,-1.62C-0.43,10.82 -0.1,63.38 0.09,76.19" style="fill:none;fill-rule:nonzero;stroke:rgb(30,30,30);stroke-width:2px;"/>
        </g>
    </g>
    <g transform="matrix(0.714564,0,0,0.714564,206.405957,145.80387)">
        <g transform="matrix(1,0,0,1,1837.729501,457.120598)">
            <path d="M-0.28,0.39C-0.5,13.2 -0.38,63.25 -0.69,75.84M1.77,-0.45C1.4,12.09 -1.01,61.64 -1.24,74.03" style="fill:none;fill-rule:nonzero;stroke:rgb(30,30,30);stroke-width:2px;"/>
        </g>
    </g>
    <g transform="matrix(0.714564,0,0,0.714564,1513.022062,566.07048)">
        <g transform="matrix(1,0,0,1,-144.427832,17.62)">
            <text x="0px" y="0px" style="font-family:'ArialMT', 'Arial', sans-serif;font-size:20px;fill:rgb(30,30,30);">When user &apos;x&apos; logins to the application, then his</text>
        </g>
        <g transform="matrix(1,0,0,1,-144.427832,42.62)">
            <text x="0px" y="0px" style="font-family:'ArialMT', 'Arial', sans-serif;font-size:20px;fill:rgb(30,30,30);">records are stored in the backend, and are monitored</text>
        </g>
        <g transform="matrix(1,0,0,1,-144.427832,67.62)">
            <text x="0px" y="0px" style="font-family:'ArialMT', 'Arial', sans-serif;font-size:20px;fill:rgb(30,30,30);">and then his usage are stored in the backend and then</text>
        </g>
        <g transform="matrix(1,0,0,1,-144.427832,92.62)">
            <text x="0px" y="0px" style="font-family:'ArialMT', 'Arial', sans-serif;font-size:20px;fill:rgb(30,30,30);">shown in his user&apos;s dashboard</text>
        </g>
    </g>
    <g transform="matrix(0.714564,0,0,0.714564,110.348622,152.949513)">
        <path d="M32,0C501.01,-2.33 971.44,-2.82 1552.01,0M32,0C380.81,0.91 730.23,1.31 1552.01,0M1552.01,0C1572.73,1.55 1583.24,12.44 1584.01,32M1552.01,0C1572.34,0.08 1584.9,10.11 1584.01,32M1584.01,32C1588.38,445.92 1588.32,859.5 1584.01,1073.13M1584.01,32C1581.6,360.08 1581.79,687.29 1584.01,1073.13M1584.01,1073.13C1585.82,1096.44 1574.64,1104.11 1552.01,1105.13M1584.01,1073.13C1582.62,1094.49 1571.07,1105.61 1552.01,1105.13M1552.01,1105.13C1227.3,1107.72 900.93,1107.71 32,1105.13M1552.01,1105.13C1010.85,1106.15 469.66,1106.63 32,1105.13M32,1105.13C10.73,1103.74 1.2,1095.83 0,1073.13M32,1105.13C11.79,1105.37 -0.39,1094.65 0,1073.13M0,1073.13C-4.28,733.21 -3.45,392.87 0,32M0,1073.13C3.39,705.49 2.76,337.01 0,32M0,32C-0.28,10.55 10.07,-1.27 32,0M0,32C0.63,10.97 8.84,0.88 32,0" style="fill:none;fill-rule:nonzero;stroke:rgb(30,30,30);stroke-width:2px;"/>
    </g>
    <g transform="matrix(0.714564,0,0,0.714564,206.405957,145.80387)">
        <g transform="matrix(1,0,0,1,1447.981366,560.903326)">
            <path d="M-1.07,0.57C46.25,-16.47 235.83,-84.56 283.41,-101.24M0.57,-0.18C47.77,-16.58 235.17,-83.32 282.44,-100.2" style="fill:none;fill-rule:nonzero;stroke:rgb(30,30,30);stroke-width:2px;"/>
        </g>
        <g transform="matrix(1,0,0,1,1447.981366,560.903326)">
            <path d="M263.18,-84.26C268.96,-88.27 271.4,-90.7 282.44,-100.2M263.18,-84.26C269.88,-89.59 276.71,-95.43 282.44,-100.2" style="fill:none;fill-rule:nonzero;stroke:rgb(30,30,30);stroke-width:2px;"/>
        </g>
        <g transform="matrix(1,0,0,1,1447.981366,560.903326)">
            <path d="M257.44,-100.36C264.84,-100.17 268.76,-98.44 282.44,-100.2M257.44,-100.36C266.34,-99.76 275.28,-99.68 282.44,-100.2" style="fill:none;fill-rule:nonzero;stroke:rgb(30,30,30);stroke-width:2px;"/>
        </g>
    </g>
</svg>
