<svg width="40" height="40" viewBox="0 0 40 40" fill="none" xmlns="http://www.w3.org/2000/svg">
<rect x="4" y="4" width="32" height="32" rx="6.4" fill="url(#paint0_linear_5437_79079)"/>
<rect x="4.80005" y="4.7998" width="30.4" height="30.4" rx="5.6" fill="black"/>
<rect x="7.19995" y="7.2002" width="25.6" height="25.6" rx="3.2" fill="#202A2F"/>
<path d="M25.2454 8.85742H19.2454V20.8574H25.2454V8.85742Z" fill="#0EE827" fill-opacity="0.35"/>
<path d="M11.7895 18.9218C11.4758 18.8949 11.1817 18.85 10.9072 18.7872C10.6424 18.7154 10.3973 18.6392 10.1718 18.5584C9.95613 18.4776 9.76496 18.4014 9.59829 18.3296C9.44145 18.2488 9.32378 18.186 9.24536 18.1412L9.87771 16.9567C9.94631 17.0016 10.064 17.0644 10.2306 17.1452C10.3973 17.2259 10.5836 17.3111 10.7895 17.4009C11.0052 17.4816 11.2257 17.5534 11.4513 17.6162C11.6768 17.679 11.8875 17.7105 12.0836 17.7105C13.064 17.7105 13.5542 17.3381 13.5542 16.5933C13.5542 16.4138 13.5199 16.2658 13.4512 16.1492C13.3925 16.0325 13.2993 15.9338 13.1719 15.853C13.0542 15.7633 12.9071 15.687 12.7307 15.6242C12.564 15.5525 12.3729 15.4806 12.1571 15.4089C11.7453 15.2653 11.3777 15.1172 11.0542 14.9647C10.7405 14.8032 10.4708 14.6237 10.2454 14.4263C10.0199 14.2289 9.8483 14.0046 9.73063 13.7534C9.61303 13.5021 9.5542 13.2149 9.5542 12.8919C9.5542 12.6407 9.60812 12.3984 9.71596 12.1651C9.82379 11.9318 9.97572 11.7254 10.1718 11.546C10.3679 11.3576 10.6032 11.2005 10.8777 11.0749C11.1522 10.9403 11.4562 10.8461 11.7895 10.7922V8.85742H12.9954V10.7653C13.2503 10.7922 13.4954 10.8326 13.7307 10.8865C13.966 10.9403 14.1767 10.9986 14.363 11.0614C14.5493 11.1242 14.7062 11.1871 14.8336 11.2499C14.9709 11.3037 15.0689 11.3441 15.1278 11.371L14.5395 12.4747C14.4611 12.4388 14.3483 12.3939 14.2012 12.3401C14.064 12.2773 13.9072 12.2144 13.7307 12.1517C13.5542 12.0888 13.363 12.035 13.1571 11.9901C12.9513 11.9453 12.7454 11.9228 12.5395 11.9228C12.2062 11.9228 11.9071 11.9856 11.6424 12.1112C11.3875 12.2279 11.2601 12.4298 11.2601 12.7169C11.2601 12.8964 11.2944 13.058 11.363 13.2015C11.4414 13.3361 11.5493 13.4573 11.6865 13.5649C11.8336 13.6726 12.0101 13.7758 12.2159 13.8745C12.4316 13.9642 12.6768 14.054 12.9513 14.1437C13.314 14.2782 13.6376 14.4173 13.9218 14.5609C14.2062 14.7045 14.4463 14.866 14.6424 15.0455C14.8385 15.2249 14.9856 15.4313 15.0836 15.6646C15.1914 15.8979 15.2454 16.1715 15.2454 16.4856C15.2454 16.7548 15.1964 17.015 15.0983 17.2662C15.0101 17.5175 14.8679 17.7508 14.6718 17.9661C14.4856 18.1815 14.2503 18.3699 13.966 18.5315C13.6915 18.684 13.3679 18.7962 12.9954 18.8679V20.8574H11.7895V18.9218Z" fill="#0EE827"/>
<defs>
<linearGradient id="paint0_linear_5437_79079" x1="20" y1="4" x2="20" y2="36" gradientUnits="userSpaceOnUse">
<stop stop-color="#D4E6E8"/>
<stop offset="1" stop-color="#767573"/>
</linearGradient>
</defs>
</svg>
