<svg width="40" height="40" viewBox="0 0 40 40" fill="none" xmlns="http://www.w3.org/2000/svg">
<mask id="mask0_5437_79124" style="mask-type:alpha" maskUnits="userSpaceOnUse" x="5" y="5" width="30" height="30">
<path fill-rule="evenodd" clip-rule="evenodd" d="M26.0227 34.1285C26.2519 34.2179 26.4969 34.2592 26.7427 34.2497C26.9884 34.2403 27.2296 34.1804 27.4512 34.0738L33.3809 31.2206C33.6863 31.0736 33.9439 30.8433 34.1243 30.5563C34.3046 30.2693 34.4002 29.9372 34.4001 29.5983V10.2522C34.4001 9.91323 34.3044 9.58119 34.1241 9.29424C33.9437 9.00729 33.686 8.77709 33.3806 8.63014L27.4518 5.77692C27.1167 5.6157 26.7398 5.56263 26.3733 5.62507C26.0067 5.6875 25.6687 5.86235 25.4059 6.1254L14.0543 16.4807L9.10994 12.7281C8.88691 12.5587 8.61163 12.4728 8.33186 12.4852C8.05209 12.4976 7.78549 12.6076 7.57835 12.7961L5.99262 14.2387C5.86908 14.3511 5.77035 14.488 5.70276 14.6408C5.63517 14.7935 5.60021 14.9587 5.6001 15.1257C5.59999 15.2928 5.63474 15.458 5.70213 15.6108C5.76952 15.7636 5.86807 15.9007 5.99147 16.0133L10.2792 19.9252L5.99176 23.8371C5.86836 23.9497 5.76981 24.0868 5.70242 24.2396C5.63503 24.3925 5.60028 24.5577 5.60039 24.7247C5.60049 24.8917 5.63546 25.0569 5.70305 25.2097C5.77064 25.3624 5.86936 25.4994 5.99291 25.6118L7.57864 27.0547C7.78578 27.2431 8.05237 27.3531 8.33214 27.3655C8.61191 27.3779 8.8872 27.292 9.11022 27.1226L14.0546 23.3694L25.4059 33.7253C25.5814 33.9011 25.7913 34.0384 26.0227 34.1285ZM27.2044 13.3876L18.5918 19.9252L27.2047 26.4631L27.2044 13.3876Z" fill="white"/>
</mask>
<g mask="url(#mask0_5437_79124)">
<path d="M33.3807 8.6342L27.4467 5.77724C27.1116 5.61588 26.7346 5.56266 26.368 5.62494C26.0013 5.68722 25.663 5.86191 25.3999 6.12486L5.97403 23.8369C5.85059 23.9494 5.75201 24.0865 5.68459 24.2393C5.61718 24.3922 5.58241 24.5574 5.58252 24.7245C5.58263 24.8915 5.61761 25.0567 5.68522 25.2094C5.75284 25.3622 5.8516 25.4991 5.97518 25.6115L7.56206 27.0541C7.76938 27.2425 8.03605 27.3524 8.31587 27.3648C8.59569 27.3772 8.87105 27.2913 9.09422 27.1221L32.4879 9.37551C33.2727 8.78022 34.3999 9.3398 34.3999 10.3251V10.2559C34.3999 9.91713 34.3042 9.58524 34.1239 9.2984C33.9436 9.01157 33.686 8.78145 33.3807 8.63449V8.6342Z" fill="#0065A9"/>
<g filter="url(#filter0_d_5437_79124)">
<path d="M33.3807 31.2161L27.4467 34.0731C27.1116 34.2345 26.7346 34.2877 26.3679 34.2255C26.0012 34.1632 25.663 33.9885 25.3999 33.7255L5.97403 16.0135C5.85059 15.9009 5.75201 15.7638 5.68459 15.611C5.61718 15.4582 5.58241 15.2929 5.58252 15.1259C5.58263 14.9588 5.61761 14.7937 5.68522 14.6409C5.75284 14.4882 5.8516 14.3512 5.97518 14.2388L7.56206 12.7962C7.76938 12.6079 8.03605 12.498 8.31587 12.4856C8.59569 12.4731 8.87105 12.559 9.09422 12.7282L32.4879 30.4748C33.2727 31.0701 34.3999 30.5105 34.3999 29.5253V29.5944C34.3999 29.9332 34.3042 30.2651 34.1239 30.5519C33.9436 30.8388 33.686 31.0692 33.3807 31.2161Z" fill="#007ACC"/>
</g>
<g filter="url(#filter1_d_5437_79124)">
<path d="M27.447 34.0738C27.1118 34.235 26.7347 34.2881 26.3679 34.2257C26.0012 34.1633 25.6629 33.9884 25.3999 33.7253C26.064 34.3898 27.1999 33.9194 27.1999 32.98V6.87104C27.1999 5.93159 26.064 5.46128 25.3999 6.12541C25.6629 5.86234 26.0012 5.68749 26.3679 5.62506C26.7347 5.56263 27.1118 5.6157 27.447 5.77693L33.3798 8.63044C33.6853 8.77731 33.9432 9.00748 34.1236 9.29443C34.3041 9.58139 34.3999 9.91347 34.3999 10.2525V29.5986C34.3999 29.9376 34.3042 30.2697 34.1238 30.5567C33.9434 30.8437 33.6856 31.0739 33.3801 31.2209L27.447 34.0738Z" fill="#1F9CF0"/>
</g>
<path opacity="0.25" fill-rule="evenodd" clip-rule="evenodd" d="M26.0052 34.1285C26.2343 34.2179 26.4793 34.2591 26.7251 34.2497C26.9709 34.2403 27.212 34.1804 27.4336 34.0738L33.3633 31.2206C33.6687 31.0736 33.9265 30.8434 34.1068 30.5564C34.2872 30.2694 34.3829 29.9372 34.3828 29.5983V10.2522C34.3828 9.91323 34.2871 9.58119 34.1068 9.29424C33.9264 9.00729 33.6687 8.77709 33.3633 8.63014L27.4339 5.77692C27.0989 5.6157 26.722 5.56263 26.3554 5.62507C25.9889 5.6875 25.6508 5.86235 25.388 6.1254L14.0367 16.4807L9.09236 12.7281C8.86936 12.5588 8.59413 12.4729 8.31442 12.4853C8.03472 12.4977 7.76818 12.6077 7.56106 12.7961L5.97504 14.2387C5.8515 14.3511 5.75277 14.488 5.68518 14.6408C5.6176 14.7935 5.58263 14.9587 5.58252 15.1257C5.58241 15.2928 5.61716 15.458 5.68456 15.6108C5.75195 15.7636 5.85049 15.9007 5.97389 16.0133L10.2616 19.9252L5.97389 23.8371C5.85049 23.9497 5.75195 24.0868 5.68456 24.2396C5.61716 24.3925 5.58241 24.5577 5.58252 24.7247C5.58263 24.8917 5.6176 25.0569 5.68518 25.2097C5.75277 25.3624 5.8515 25.4994 5.97504 25.6118L7.56106 27.0544C7.76818 27.2428 8.03472 27.3527 8.31442 27.3651C8.59413 27.3775 8.86936 27.2916 9.09236 27.1223L14.0367 23.3697L25.388 33.7256C25.5635 33.9014 25.7737 34.0384 26.0052 34.1285ZM27.1868 13.3876L18.5739 19.9252L27.1868 26.4631V13.3876Z" fill="url(#paint0_linear_5437_79124)" style="mix-blend-mode:overlay"/>
</g>
<defs>
<filter id="filter0_d_5437_79124" x="-7.75188" y="-0.850024" width="55.4862" height="48.4354" filterUnits="userSpaceOnUse" color-interpolation-filters="sRGB">
<feFlood flood-opacity="0" result="BackgroundImageFix"/>
<feColorMatrix in="SourceAlpha" type="matrix" values="0 0 0 0 0 0 0 0 0 0 0 0 0 0 0 0 0 0 127 0" result="hardAlpha"/>
<feOffset/>
<feGaussianBlur stdDeviation="6.6672"/>
<feColorMatrix type="matrix" values="0 0 0 0 0 0 0 0 0 0 0 0 0 0 0 0 0 0 0.25 0"/>
<feBlend mode="overlay" in2="BackgroundImageFix" result="effect1_dropShadow_5437_79124"/>
<feBlend mode="normal" in="SourceGraphic" in2="effect1_dropShadow_5437_79124" result="shape"/>
</filter>
<filter id="filter1_d_5437_79124" x="12.0655" y="-7.73479" width="35.6688" height="55.3202" filterUnits="userSpaceOnUse" color-interpolation-filters="sRGB">
<feFlood flood-opacity="0" result="BackgroundImageFix"/>
<feColorMatrix in="SourceAlpha" type="matrix" values="0 0 0 0 0 0 0 0 0 0 0 0 0 0 0 0 0 0 127 0" result="hardAlpha"/>
<feOffset/>
<feGaussianBlur stdDeviation="6.6672"/>
<feColorMatrix type="matrix" values="0 0 0 0 0 0 0 0 0 0 0 0 0 0 0 0 0 0 0.25 0"/>
<feBlend mode="overlay" in2="BackgroundImageFix" result="effect1_dropShadow_5437_79124"/>
<feBlend mode="normal" in="SourceGraphic" in2="effect1_dropShadow_5437_79124" result="shape"/>
</filter>
<linearGradient id="paint0_linear_5437_79124" x1="19.9825" y1="5.59951" x2="19.9825" y2="34.2509" gradientUnits="userSpaceOnUse">
<stop stop-color="white"/>
<stop offset="1" stop-color="white" stop-opacity="0"/>
</linearGradient>
</defs>
</svg>
