<?xml version="1.0" standalone="no"?>
<!DOCTYPE svg PUBLIC "-//W3C//DTD SVG 1.1//EN" "http://www.w3.org/Graphics/SVG/1.1/DTD/svg11.dtd">
<svg xmlns="http://www.w3.org/2000/svg" xmlns:xlink="http://www.w3.org/1999/xlink" xmlns:serif="http://www.serif.com/" width="281" height="266" viewBox="0 0 281 266" version="1.1" xml:space="preserve" style="fill-rule:evenodd;clip-rule:evenodd;stroke-linejoin:round;stroke-miterlimit:2;">
    <g transform="matrix(1,0,0,1,-121.5,-75)">
        <g transform="matrix(1,0,0,1,-17.5,-2)">
            <g transform="matrix(1,0,0,1,270,77)">
                <path d="M0,0L19,0C19,30.03 18.858,75.623 19,91C19.027,93.868 24.425,95.311 26,92C27.728,88.368 32.864,80.034 35.75,73.625C42.385,59.058 42.385,59.058 45.938,52.125C50.384,43.427 54.433,34.539 58.521,25.668C59.057,24.507 59.593,23.345 60.145,22.148C60.623,21.109 61.101,20.069 61.593,18.998C63.013,15.972 64.493,12.983 66,10C70.689,10.556 74.199,11.882 78.375,14.062C79.435,14.61 80.494,15.158 81.586,15.723C82.383,16.144 83.179,16.566 84,17C83.381,21.824 81.342,25.624 79.125,29.875C78.417,31.246 77.712,32.619 77.008,33.992C76.538,34.895 76.538,34.895 76.059,35.816C74.891,38.225 73.853,40.68 72.808,43.144C71.491,46.169 70.043,49.13 68.594,52.094C68.272,52.755 67.951,53.416 67.62,54.096C66.934,55.505 66.248,56.913 65.562,58.321C64.488,60.524 63.417,62.729 62.347,64.935C56.699,76.577 56.699,76.577 54.192,81.693C52.643,84.855 51.102,88.021 49.562,91.188C49.109,92.105 48.655,93.023 48.188,93.969C46.098,98.286 44.822,102.641 44.029,105.076C42.914,108.501 48.097,111.35 54.695,105.781C55.543,105.066 56.445,104.419 57.347,103.718C58.264,102.986 59.18,102.254 60.125,101.5C62.027,100.015 63.929,98.53 65.832,97.047C66.735,96.337 67.638,95.628 68.569,94.896C71.277,92.784 74.021,90.751 76.812,88.75C81.144,85.635 85.422,82.454 89.688,79.25C90.364,78.742 91.04,78.234 91.736,77.711C93.825,76.141 95.912,74.571 98,73C106.951,66.265 115.91,59.548 125,53C129.751,57.192 133.388,62.206 136,68C134.785,71.646 133.739,72.152 130.625,74.312C129.625,75.02 128.624,75.728 127.594,76.457C127.025,76.857 126.457,77.258 125.871,77.67C122.258,80.238 118.693,82.871 115.125,85.5C114.317,86.095 113.509,86.689 112.676,87.302C105.683,92.464 98.772,97.731 91.869,103.013C84.341,108.763 76.739,114.408 69.102,120.012C68.415,120.523 67.728,121.034 67.021,121.56C65,123 65,123 62.909,124.256C60.697,125.55 59.41,126.627 58,128C55.031,130.891 55.749,134.851 58,135C66.402,135.554 91.737,129.175 108.445,125.254C111.948,124.433 115.452,123.616 118.956,122.798C121.513,122.199 124.068,121.592 126.623,120.984C134.42,119.148 141.979,117.497 150,117L150,137C105.573,147.056 105.573,147.056 84.963,151.375C81.397,152.127 77.836,152.901 74.276,153.681C54.447,157.743 34.772,158.352 14.576,158.316C11.786,158.311 8.996,158.318 6.207,158.336C-20.879,158.512 -47.704,156.589 -74.005,149.762C-81.405,147.854 -88.858,146.179 -96.312,144.5C-96.986,144.348 -97.66,144.196 -98.354,144.04C-109.216,141.596 -120.096,139.253 -131,137L-131,117C-122.499,118.233 -114.17,119.739 -105.805,121.68C-104.692,121.934 -103.579,122.188 -102.432,122.449C-98.912,123.254 -95.393,124.064 -91.875,124.875C-83.948,126.695 -76.019,128.507 -68.086,130.3C-66.086,130.753 -64.088,131.211 -62.09,131.673C-59.482,132.275 -56.87,132.862 -54.258,133.445C-53.514,133.621 -52.769,133.797 -52.003,133.978C-47.256,135.014 -41.605,135.563 -38.905,134.571C-37.132,133.92 -35.595,131.732 -39,128C-40.044,126.856 -40.973,125.845 -43.75,124.188C-44.757,123.509 -45.764,122.831 -46.801,122.133C-47.857,121.429 -48.912,120.725 -50,120C-51.989,118.535 -53.969,117.055 -55.938,115.562C-56.942,114.807 -57.946,114.052 -58.98,113.273C-59.977,112.523 -60.973,111.773 -62,111C-63.916,109.562 -65.833,108.125 -67.75,106.688C-77.891,99.082 -77.891,99.082 -79.931,97.552C-81.312,96.516 -82.694,95.48 -84.075,94.444C-87.105,92.172 -90.134,89.899 -93.16,87.621C-101.057,81.68 -109.021,75.831 -117,70C-115.515,65.957 -113.571,62.389 -111.375,58.688C-110.743,57.619 -110.112,56.55 -109.461,55.449C-108.738,54.237 -108.738,54.237 -108,53C-103.036,54.578 -99.467,57.51 -95.438,60.688C-93.917,61.868 -92.397,63.048 -90.875,64.227C-90.08,64.844 -89.284,65.462 -88.465,66.099C-84.321,69.295 -80.129,72.428 -75.938,75.562C-75.095,76.193 -74.252,76.824 -73.384,77.475C-71.715,78.724 -70.046,79.973 -68.376,81.222C-64.832,83.874 -61.291,86.531 -57.75,89.188C-56.47,90.147 -55.19,91.107 -53.91,92.066C-51.125,94.155 -48.341,96.247 -45.559,98.34C-44.827,98.889 -44.096,99.439 -43.343,100.005C-41.941,101.059 -40.539,102.113 -39.138,103.169C-38.508,103.642 -37.879,104.114 -37.23,104.602C-36.678,105.017 -36.125,105.433 -35.555,105.862C-31.698,108.685 -27.194,111.433 -25,109C-22.378,106.091 -26.441,99.225 -29,94.125C-29.362,93.38 -29.724,92.635 -30.098,91.867C-31.953,88.069 -33.852,84.294 -35.755,80.521C-41.258,69.594 -46.524,58.562 -51.75,47.5C-53.01,44.836 -54.27,42.173 -55.531,39.51C-56.307,37.872 -57.081,36.234 -57.855,34.595C-58.209,33.846 -58.564,33.097 -58.929,32.326C-59.268,31.606 -59.607,30.885 -59.956,30.142C-60.668,28.68 -61.415,27.235 -62.19,25.805C-62.566,25.107 -62.942,24.409 -63.329,23.689C-63.673,23.074 -64.018,22.459 -64.373,21.825C-65.183,19.468 -64.949,18.287 -64,16C-61.199,14.262 -61.199,14.262 -57.688,12.688C-56.536,12.155 -55.385,11.623 -54.199,11.074C-50.003,9.665 -50.003,9.665 -47,11C-45.511,13.151 -45.511,13.151 -44.117,16.012C-43.333,17.598 -43.333,17.598 -42.534,19.215C-41.986,20.361 -41.439,21.507 -40.875,22.688C-40.016,24.445 -40.016,24.445 -39.14,26.238C-35.095,34.54 -31.241,42.93 -27.463,51.357C-23.871,59.359 -19.987,67.189 -16,75C-14.495,77.956 -12.931,80.882 -11.5,83.875C-10.947,85.031 -10.607,86.12 -10.607,86.12C-10.607,86.12 -10.192,87.717 -9.46,89.182C-8.791,90.519 -8.349,92.119 -8,93C-7.343,94.659 -2.098,97.284 -1,91C-0.505,45.955 -0.505,45.955 0,0Z" style="fill:rgb(232,170,65);fill-rule:nonzero;"/>
            </g>
            <g transform="matrix(1,0,0,1,143,247)">
                <path d="M0,0C5.679,1.609 11.22,3.434 16.75,5.5C44.072,15.37 70.985,13.054 98.375,4.875C128.178,-3.916 157.031,0.098 186.532,7.893C215.791,15.569 241.315,11.636 269.071,0.671C271,0 271,0 273,0C272.462,3.066 271.771,5.988 271,9C270.759,10.23 270.518,11.46 270.27,12.727C269.218,16.967 268.038,20.761 265,24C258.621,27.627 251.139,28.727 244,30C243.15,30.186 242.3,30.373 241.424,30.565C233.416,32.254 225.46,32.356 217.312,32.312C216.602,32.311 215.892,32.309 215.16,32.307C204.808,32.262 195.049,31.785 185,29C184.304,28.807 183.607,28.614 182.89,28.416C179.842,27.568 176.798,26.708 173.754,25.848C147.18,18.417 120.803,19.184 94.445,27.02C72.144,33.366 47.561,34.617 25,29C23.501,28.755 22.001,28.517 20.5,28.285C9.843,26.333 9.843,26.333 6.594,22.221C2.671,15.328 0.907,7.812 0,0Z" style="fill:rgb(232,170,65);fill-rule:nonzero;"/>
            </g>
            <g transform="matrix(1,0,0,1,318.112549,290.486572)">
                <path d="M0,0C8.943,2.999 17.368,4.868 26.825,4.701C27.597,4.694 28.369,4.688 29.164,4.681C35.103,4.602 40.99,4.241 46.887,3.513C47.539,5.386 48.183,7.262 48.825,9.138C49.364,10.705 49.364,10.705 49.915,12.302C50.845,15.373 51.435,18.341 51.887,21.513C30.147,27.136 9.441,25.329 -11.421,17.463C-32.226,10.125 -51.962,12.915 -72.437,19.637C-83.571,23.284 -93.722,24.866 -105.488,24.951C-106.57,24.961 -107.652,24.971 -108.766,24.982C-115.959,24.903 -122.279,23.745 -129.113,21.513C-128.47,18.888 -127.823,16.263 -127.175,13.638C-126.993,12.892 -126.81,12.146 -126.622,11.377C-125.226,5.74 -125.226,5.74 -124.113,3.513C-123.539,3.586 -122.965,3.658 -122.374,3.732C-106.857,5.428 -93.215,5.076 -78.334,0.232C-71.975,-1.825 -65.538,-3.649 -59.113,-5.487C-58.249,-5.737 -57.385,-5.987 -56.495,-6.244C-37.561,-10.896 -17.954,-6.06 0,0Z" style="fill:rgb(232,170,65);fill-rule:nonzero;"/>
            </g>
            <g transform="matrix(1,0,0,1,278.5625,317.625)">
                <path d="M0,0C0.958,0.001 1.916,0.002 2.903,0.003C11.58,0.145 19.187,1.72 27.438,4.375C28.421,4.683 29.405,4.991 30.418,5.309C32.436,5.963 34.44,6.661 36.438,7.375C35.753,11.551 34.424,15.256 32.875,19.188C32.42,20.349 31.965,21.51 31.496,22.707C30.972,24.028 30.972,24.028 30.438,25.375C24.923,24.748 19.675,23.489 14.305,22.094C0.779,18.703 -10.594,20.985 -23.684,24.916C-25.562,25.375 -25.562,25.375 -28.562,25.375C-29.569,22.94 -30.568,20.502 -31.562,18.062C-31.992,17.027 -31.992,17.027 -32.43,15.971C-33.652,12.96 -34.562,10.656 -34.562,7.375C-32.252,6.577 -29.939,5.787 -27.625,5C-26.985,4.778 -26.345,4.557 -25.686,4.328C-17.098,1.423 -9.083,-0.015 0,0Z" style="fill:rgb(232,170,65);fill-rule:nonzero;"/>
            </g>
        </g>
    </g>
</svg>