<svg width="40" height="40" viewBox="0 0 40 40" fill="none" xmlns="http://www.w3.org/2000/svg">
<g clip-path="url(#clip0_5436_78947)">
<mask id="mask0_5436_78947" style="mask-type:luminance" maskUnits="userSpaceOnUse" x="4" y="4" width="32" height="32">
<path d="M4 4H36V36H4V4Z" fill="white"/>
</mask>
<g mask="url(#mask0_5436_78947)">
<path d="M28.375 4H11.625C7.41383 4 4 7.41383 4 11.625V28.375C4 32.5862 7.41383 36 11.625 36H28.375C32.5862 36 36 32.5862 36 28.375V11.625C36 7.41383 32.5862 4 28.375 4Z" fill="black"/>
</g>
<path d="M29.6214 14.2072L20.9502 9.12249C20.6718 8.95917 20.3282 8.95917 20.0498 9.12249L11.3786 14.2072C11.1445 14.3445 11 14.5984 11 14.8733V25.1267C11 25.4012 11.1445 25.6555 11.3786 25.7928L20.0498 30.8775C20.3282 31.0408 20.6718 31.0408 20.9502 30.8775L29.6214 25.7928C29.8555 25.6555 30 25.4016 30 25.1267V14.8733C30 14.5988 29.8555 14.3445 29.6214 14.2072ZM29.0767 15.2843L20.706 30.0101C20.6494 30.1093 20.5 30.0688 20.5 29.9538V20.3115C20.5 20.1189 20.3986 19.9407 20.2342 19.8439L12.0124 15.0226C11.9147 14.9651 11.9546 14.8134 12.0678 14.8134H28.8093C29.047 14.8134 29.1956 15.0751 29.0767 15.2843Z" fill="white"/>
</g>
<defs>
<clipPath id="clip0_5436_78947">
<rect width="32" height="32" fill="white" transform="translate(4 4)"/>
</clipPath>
</defs>
</svg>
